<?xml version="1.0" encoding="utf-8"?>
<!-- Generator: Adobe Illustrator 23.0.1, SVG Export Plug-In . SVG Version: 6.00 Build 0)  -->
<svg version="1.1" id="Layer_1" xmlns="http://www.w3.org/2000/svg" xmlns:xlink="http://www.w3.org/1999/xlink" x="0px" y="0px"
	 viewBox="0 0 1000 1000" style="enable-background:new 0 0 1000 1000;" xml:space="preserve">
<style type="text/css">
	.st0{fill-rule:evenodd;clip-rule:evenodd;fill:#DE0029;}
	.st1{fill-rule:evenodd;clip-rule:evenodd;fill:#F3C202;}
	.st2{fill-rule:evenodd;clip-rule:evenodd;fill:#326DB3;}
	.st3{fill-rule:evenodd;clip-rule:evenodd;fill:#00AA9E;}
</style>
<g id="g3" transform="translate(-61.68556,-312.8684)">
	<path id="path7" class="st0" d="M601.2,591l-0.7,601.8l-161.2-52.4V433l205.8,54.4c131.7,35.4,212.4,104.2,211,224.9
		c-1.3,140.3-66.2,196.7-192.7,160V595.6C663.5,562.1,601.2,560.2,601.2,591L601.2,591z"/>
	<path id="path9" class="st1" d="M365.3,1023.6l-76,25.6c-49.2,17-91.1-22.9-45.9-39.3l36.7-13.1l-138.3-43.9
		c-42.6,14.4-82.6,45.2-80,88.5c2.6,43.9,102.9,54.4,180.2,66.9c72.1,11.8,137.6,5.2,197.3-15.7v-45.2L365.3,1023.6L365.3,1023.6z
		 M601.9,1192.8l140.9-49.2l-142.2-45.2v91.1L601.9,1192.8L601.9,1192.8z"/>
	<path id="path11" class="st2" d="M976.8,1061l2.6-0.7c61.6-21.6,87.8-51.8,81.3-80c-10.5-47.2-85.9-72.8-201.9-81.3
		c-83.2-5.9-165.2,12.5-245.1,40l-13.1,4.6l143.5,44.6L828,960c87.8-16.4,123.2,12.5,38.7,39.3l-42,14.4L976.8,1061L976.8,1061z
		 M439.3,852.5l-63.6,21.6l63.6,19.7V852.5L439.3,852.5z"/>
	<path id="path13" class="st3" d="M742.8,1143.6l234-82.6l-152.1-47.2l-224.2,76.7v7.9L742.8,1143.6L742.8,1143.6z M439.3,998.7
		l-74.1,24.9l74.1,23.6V998.7L439.3,998.7z M600.6,1037.4v-93.7l143.5,44.6L600.6,1037.4L600.6,1037.4z M280.1,996.8l159.3-57v-45.9
		l-63.6-19.7l-230.7,78c-0.7,0-2,0.6-3.3,0.6L280.1,996.8L280.1,996.8z"/>
</g>
</svg>
